<svg width="15" height="16" viewBox="0 0 15 16" fill="none" xmlns="http://www.w3.org/2000/svg">
<path d="M0.25 8.75002H4.75V7.25002H0.25V0.384518C0.250011 0.319354 0.267003 0.255318 0.2993 0.198721C0.331597 0.142124 0.378086 0.0949196 0.434182 0.0617611C0.490279 0.0286026 0.554049 0.0106343 0.619205 0.00962731C0.684361 0.00862029 0.748655 0.0246093 0.80575 0.0560183L14.6522 7.67152C14.711 7.70389 14.7601 7.75145 14.7942 7.80923C14.8284 7.86701 14.8464 7.9329 14.8464 8.00002C14.8464 8.06714 14.8284 8.13302 14.7942 8.19081C14.7601 8.24859 14.711 8.29615 14.6522 8.32852L0.80575 15.944C0.748655 15.9754 0.684361 15.9914 0.619205 15.9904C0.554049 15.9894 0.490279 15.9714 0.434182 15.9383C0.378086 15.9051 0.331597 15.8579 0.2993 15.8013C0.267003 15.7447 0.250011 15.6807 0.25 15.6155V8.75002Z" fill="white"/>
</svg>
