<svg width="30" height="30" viewBox="0 0 30 30" fill="none" xmlns="http://www.w3.org/2000/svg">
<path d="M21.3114 14.4961C20.9056 15.007 20.4498 15.4787 19.9263 15.9044C22.9146 17.6185 24.9321 20.8412 24.9321 24.5262C24.9321 26.5174 20.5693 28.0772 15 28.0772C9.43057 28.0772 5.06784 26.5174 5.06784 24.5262C5.06784 20.8412 7.08529 17.6185 10.0736 15.9044C9.55014 15.4787 9.09433 15.0071 8.68853 14.4961C5.36069 16.5976 3.14551 20.3078 3.14551 24.5262C3.14551 25.8041 3.84521 27.5849 7.17877 28.8123C9.25814 29.5779 12.0358 29.9995 15 29.9995C17.9643 29.9995 20.7419 29.5779 22.8213 28.8123C26.1548 27.5849 26.8545 25.8041 26.8545 24.5262C26.8544 20.3078 24.6392 16.5976 21.3114 14.4961Z" fill="#272424"/>
<path d="M14.9999 15.7633C18.7359 15.7633 21.6128 12.152 21.6128 7.88167C21.6128 3.60939 18.7345 0 14.9999 0C11.2639 0 8.38702 3.6113 8.38702 7.8816C8.38702 12.1539 11.2654 15.7633 14.9999 15.7633ZM14.9999 1.92233C17.5862 1.92233 19.6905 4.59563 19.6905 7.8816C19.6905 11.1676 17.5862 13.8409 14.9999 13.8409C12.4136 13.8409 10.3094 11.1676 10.3094 7.8816C10.3094 4.59563 12.4136 1.92233 14.9999 1.92233Z" fill="#6979F8"/>
</svg>
